<?xml version="1.0" encoding="utf-8"?>
<!-- Generator: Adobe Illustrator 19.0.0, SVG Export Plug-In . SVG Version: 6.00 Build 0)  -->
<svg version="1.1" id="Layer_1" xmlns="http://www.w3.org/2000/svg" x="0px" y="0px"
	 viewBox="0 0 512 512" style="enable-background:new 0 0 512 512;" xml:space="preserve">
<g>
	<path d="M256,46.4c67.7,0,76.1,0,103,1.9c25,0.9,38,5.6,47.3,8.3c12.1,4.6,20.4,10.2,29.7,19.5s14.8,17.6,19.5,29.7
		c3.7,9.3,7.4,22.3,8.3,47.3c0.9,26.9,1.9,35.2,1.9,103s0,76.1-1.9,103c-0.9,25-5.6,38-8.3,47.3c-4.6,12.1-10.2,20.4-19.5,29.7
		s-17.6,14.8-29.7,19.5c-9.3,3.7-22.3,7.4-47.3,8.3c-26.9,0.9-35.2,1.9-103,1.9s-76.1,0-103-1.9c-25-0.9-38-5.6-47.3-8.3
		c-12.1-4.6-20.4-10.2-29.7-19.5s-14.8-17.6-19.5-29.7c-3.7-9.3-7.4-22.3-8.3-47.3c-0.9-26.9-1.9-35.2-1.9-103s0-76.1,1.9-103
		c0.9-25,5.6-38,8.3-47.3c4.6-12.1,10.2-20.4,19.5-29.7s17.6-14.8,29.7-19.5c9.3-3.7,22.3-7.4,47.3-8.3
		C179.9,46.4,188.3,46.4,256,46.4 M256,0c-69.6,0-77.9,0-104.8,1.9C124.3,2.8,105.7,7.4,89,13.9c-16.7,6.5-30.6,14.8-45.4,29.7
		C29.7,57.5,20.4,72.3,13.9,89c-6.5,15.8-10.2,34.3-12.1,62.1C0.9,178.1,0,187.4,0,256c0,69.6,0,77.9,1.9,104.8
		c0.9,26.9,5.6,45.4,12.1,62.1c6.5,16.7,14.8,30.6,29.7,45.4c13.9,13.9,28.8,23.2,45.4,29.7c15.8,6.5,34.3,10.2,62.1,12.1
		c26.9,0.9,36.2,1.9,104.8,1.9s77.9,0,104.8-1.9c26.9-0.9,45.4-5.6,62.1-12.1c16.7-6.5,30.6-14.8,45.4-29.7
		c13.9-13.9,23.2-28.8,29.7-45.4c6.5-15.8,10.2-34.3,12.1-62.1c0.9-26.9,1.9-36.2,1.9-104.8s0-77.9-1.9-104.8
		c-0.9-26.9-5.6-45.4-12.1-62.1c-6.5-16.7-14.8-30.6-29.7-45.4c-13.9-13.9-28.8-23.2-45.4-29.7c-15.8-6.5-34.3-10.2-62.1-12.1
		C333.9,0,325.6,0,256,0L256,0z"/>
	<path d="M256,124.3c-72.3,0-130.8,58.4-130.8,130.8S183.7,385.9,256,385.9s130.8-58.4,130.8-130.8S328.3,124.3,256,124.3z
		 M256,340.4c-47.3,0-85.3-38-85.3-85.3s38-85.3,85.3-85.3s85.3,38,85.3,85.3S303.3,340.4,256,340.4z"/>
	<circle id="XMLID_1_" cx="392.3" cy="118.7" r="30.6"/>
</g>
</svg>
